<?xml version="1.0" encoding="UTF-8" standalone="no"?>
<!-- Generator: Adobe Illustrator 18.0.0, SVG Export Plug-In . SVG Version: 6.00 Build 0)  -->

<svg
   version="1.1"
   id="Capa_1"
   x="0px"
   y="0px"
   viewBox="0 0 297 297"
   style="enable-background:new 0 0 297 297;"
   xml:space="preserve"
   sodipodi:docname="chat-own.svg"
   inkscape:version="1.2.1 (9c6d41e410, 2022-07-14, custom)"
   xmlns:inkscape="http://www.inkscape.org/namespaces/inkscape"
   xmlns:sodipodi="http://sodipodi.sourceforge.net/DTD/sodipodi-0.dtd"
   xmlns="http://www.w3.org/2000/svg"
   xmlns:svg="http://www.w3.org/2000/svg"><defs
   id="defs41" /><sodipodi:namedview
   id="namedview39"
   pagecolor="#ffffff"
   bordercolor="#666666"
   borderopacity="1.0"
   inkscape:showpageshadow="2"
   inkscape:pageopacity="0.0"
   inkscape:pagecheckerboard="0"
   inkscape:deskcolor="#d1d1d1"
   showgrid="false"
   inkscape:zoom="2.6363636"
   inkscape:cx="148.31034"
   inkscape:cy="148.87931"
   inkscape:window-width="1920"
   inkscape:window-height="1015"
   inkscape:window-x="0"
   inkscape:window-y="0"
   inkscape:window-maximized="1"
   inkscape:current-layer="g6" />
<g
   id="g6">
	<path
   d="M206.093,181.516c17.379,0,31.515-14.138,31.515-31.515V54.593c0-17.378-14.136-31.518-31.515-31.518H31.51   C14.135,23.075,0,37.215,0,54.593v95.408c0,17.377,14.135,31.515,31.51,31.515h22.933v32.988c0,4.012,2.416,7.627,6.121,9.162   c1.228,0.507,2.516,0.753,3.792,0.753c2.58,0,5.117-1.007,7.014-2.904l39.991-39.999H206.093z"
   id="path2" />
	<path
   d="M269.415,105.583h-15.944v44.418c0,26.125-21.253,47.378-47.378,47.378h-88.161l-18.537,18.542   c2.234,12.987,13.567,22.902,27.181,22.902h76.762l32.191,32.196c1.896,1.897,4.434,2.905,7.014,2.905   c1.276,0,2.564-0.249,3.792-0.756c3.705-1.535,6.12-5.149,6.12-9.16v-25.186h16.961c15.211,0,27.585-12.378,27.585-27.591v-78.061   C297,117.959,284.626,105.583,269.415,105.583z"
   id="path4"
   style="fill:#999999" />
</g>
<g
   id="g8">
</g>
<g
   id="g10">
</g>
<g
   id="g12">
</g>
<g
   id="g14">
</g>
<g
   id="g16">
</g>
<g
   id="g18">
</g>
<g
   id="g20">
</g>
<g
   id="g22">
</g>
<g
   id="g24">
</g>
<g
   id="g26">
</g>
<g
   id="g28">
</g>
<g
   id="g30">
</g>
<g
   id="g32">
</g>
<g
   id="g34">
</g>
<g
   id="g36">
</g>
</svg>
